<svg width="77" height="54" viewBox="0 0 77 54" fill="none" xmlns="http://www.w3.org/2000/svg">
<path d="M2.852 40.6712H2.866H2.992L7.654 36.3732H9.096L4.098 40.8672L9.376 46.2852H7.892L3.02 41.1752H2.866H2.852V46.2852H1.844V36.3732H2.852V40.6712ZM11.4604 46.2852H10.5364V35.7012H11.4604V46.2852ZM18.7856 42.5052C18.7856 41.8798 18.599 41.3758 18.2256 40.9932C17.8523 40.6012 17.3296 40.4052 16.6576 40.4052C16.359 40.4052 16.0696 40.4658 15.7896 40.5872C15.5096 40.6992 15.2623 40.8532 15.0476 41.0492C14.8423 41.2452 14.6743 41.4692 14.5436 41.7212C14.4223 41.9732 14.3616 42.2345 14.3616 42.5052H18.7856ZM14.3336 43.2612C14.3616 43.5878 14.441 43.8958 14.5716 44.1852C14.7023 44.4745 14.875 44.7265 15.0896 44.9412C15.3043 45.1465 15.5516 45.3098 15.8316 45.4312C16.1116 45.5525 16.415 45.6132 16.7416 45.6132C17.2363 45.6132 17.661 45.5012 18.0156 45.2772C18.3796 45.0438 18.655 44.7778 18.8416 44.4792L19.5556 45.0672C19.1636 45.5618 18.7296 45.9165 18.2536 46.1312C17.787 46.3458 17.283 46.4532 16.7416 46.4532C16.2563 46.4532 15.8036 46.3692 15.3836 46.2012C14.973 46.0238 14.6183 45.7812 14.3196 45.4732C14.021 45.1652 13.783 44.8012 13.6056 44.3812C13.4376 43.9612 13.3536 43.5038 13.3536 43.0092C13.3536 42.5145 13.4376 42.0572 13.6056 41.6372C13.7736 41.2172 14.007 40.8532 14.3056 40.5452C14.6043 40.2372 14.9543 39.9992 15.3556 39.8312C15.757 39.6538 16.191 39.5652 16.6576 39.5652C17.1523 39.5652 17.5956 39.6538 17.9876 39.8312C18.3796 40.0085 18.7063 40.2465 18.9676 40.5452C19.2383 40.8345 19.4436 41.1798 19.5836 41.5812C19.7236 41.9732 19.7936 42.3932 19.7936 42.8412V43.2612H14.3336ZM22.3509 39.7332C22.3696 39.9105 22.3789 40.0878 22.3789 40.2652C22.3883 40.4332 22.3929 40.6058 22.3929 40.7832H22.4209C22.5236 40.6058 22.6543 40.4425 22.8129 40.2932C22.9716 40.1438 23.1489 40.0178 23.3449 39.9152C23.5409 39.8032 23.7463 39.7192 23.9609 39.6632C24.1849 39.5978 24.4043 39.5652 24.6189 39.5652C25.4589 39.5652 26.0796 39.7892 26.4809 40.2372C26.8823 40.6758 27.0829 41.3058 27.0829 42.1272V46.2852H26.1589V42.6592C26.1589 41.9312 26.0329 41.3758 25.7809 40.9932C25.5289 40.6012 25.0623 40.4052 24.3809 40.4052C24.3343 40.4052 24.2036 40.4238 23.9889 40.4612C23.7743 40.4985 23.5456 40.6012 23.3029 40.7692C23.0696 40.9372 22.8596 41.1892 22.6729 41.5252C22.4863 41.8612 22.3929 42.3278 22.3929 42.9252V46.2852H21.4689V41.1752C21.4689 40.9978 21.4596 40.7738 21.4409 40.5032C21.4316 40.2325 21.4176 39.9758 21.3989 39.7332H22.3509ZM34.3487 45.3612H36.3087C37.0647 45.3612 37.7181 45.2492 38.2687 45.0252C38.8287 44.7918 39.2907 44.4885 39.6547 44.1152C40.0281 43.7325 40.3034 43.3032 40.4807 42.8272C40.6581 42.3418 40.7467 41.8425 40.7467 41.3292C40.7467 40.8158 40.6581 40.3212 40.4807 39.8452C40.3034 39.3598 40.0281 38.9305 39.6547 38.5572C39.2907 38.1745 38.8287 37.8712 38.2687 37.6472C37.7181 37.4138 37.0647 37.2972 36.3087 37.2972H34.3487V45.3612ZM33.3407 36.3732H36.6307C37.2467 36.3732 37.8627 36.4758 38.4787 36.6812C39.1041 36.8865 39.6641 37.1992 40.1587 37.6192C40.6627 38.0298 41.0687 38.5478 41.3767 39.1732C41.6847 39.7892 41.8387 40.5078 41.8387 41.3292C41.8387 42.1598 41.6847 42.8832 41.3767 43.4992C41.0687 44.1152 40.6627 44.6332 40.1587 45.0532C39.6641 45.4638 39.1041 45.7718 38.4787 45.9772C37.8627 46.1825 37.2467 46.2852 36.6307 46.2852H33.3407V36.3732ZM48.6177 42.5052C48.6177 41.8798 48.431 41.3758 48.0577 40.9932C47.6843 40.6012 47.1617 40.4052 46.4897 40.4052C46.191 40.4052 45.9017 40.4658 45.6217 40.5872C45.3417 40.6992 45.0943 40.8532 44.8797 41.0492C44.6743 41.2452 44.5063 41.4692 44.3757 41.7212C44.2543 41.9732 44.1937 42.2345 44.1937 42.5052H48.6177ZM44.1657 43.2612C44.1937 43.5878 44.273 43.8958 44.4037 44.1852C44.5343 44.4745 44.707 44.7265 44.9217 44.9412C45.1363 45.1465 45.3837 45.3098 45.6637 45.4312C45.9437 45.5525 46.247 45.6132 46.5737 45.6132C47.0683 45.6132 47.493 45.5012 47.8477 45.2772C48.2117 45.0438 48.487 44.7778 48.6737 44.4792L49.3877 45.0672C48.9957 45.5618 48.5617 45.9165 48.0857 46.1312C47.619 46.3458 47.115 46.4532 46.5737 46.4532C46.0883 46.4532 45.6357 46.3692 45.2157 46.2012C44.805 46.0238 44.4503 45.7812 44.1517 45.4732C43.853 45.1652 43.615 44.8012 43.4377 44.3812C43.2697 43.9612 43.1857 43.5038 43.1857 43.0092C43.1857 42.5145 43.2697 42.0572 43.4377 41.6372C43.6057 41.2172 43.839 40.8532 44.1377 40.5452C44.4363 40.2372 44.7863 39.9992 45.1877 39.8312C45.589 39.6538 46.023 39.5652 46.4897 39.5652C46.9843 39.5652 47.4277 39.6538 47.8197 39.8312C48.2117 40.0085 48.5383 40.2465 48.7997 40.5452C49.0703 40.8345 49.2757 41.1798 49.4157 41.5812C49.5557 41.9732 49.6257 42.3932 49.6257 42.8412V43.2612H44.1657ZM54.773 41.2872C54.633 41.0165 54.4463 40.8018 54.213 40.6432C53.9796 40.4845 53.695 40.4052 53.359 40.4052C53.2003 40.4052 53.037 40.4238 52.869 40.4612C52.7103 40.4985 52.5656 40.5592 52.435 40.6432C52.3043 40.7178 52.197 40.8158 52.113 40.9372C52.0383 41.0585 52.001 41.2078 52.001 41.3852C52.001 41.6932 52.1083 41.9172 52.323 42.0572C52.5376 42.1972 52.8596 42.3185 53.289 42.4212L54.227 42.6452C54.6843 42.7478 55.0623 42.9578 55.361 43.2752C55.669 43.5832 55.823 43.9705 55.823 44.4372C55.823 44.7918 55.7483 45.0998 55.599 45.3612C55.459 45.6132 55.2676 45.8232 55.025 45.9912C54.7916 46.1498 54.521 46.2665 54.213 46.3412C53.905 46.4158 53.5923 46.4532 53.275 46.4532C52.771 46.4532 52.2996 46.3598 51.861 46.1732C51.4316 45.9772 51.063 45.6458 50.755 45.1792L51.553 44.6332C51.7396 44.9318 51.973 45.1698 52.253 45.3472C52.5423 45.5245 52.883 45.6132 53.275 45.6132C53.4616 45.6132 53.6483 45.5945 53.835 45.5572C54.0216 45.5105 54.185 45.4452 54.325 45.3612C54.4743 45.2678 54.591 45.1512 54.675 45.0112C54.7683 44.8712 54.815 44.7078 54.815 44.5212C54.815 44.1945 54.6936 43.9612 54.451 43.8212C54.2083 43.6718 53.9143 43.5552 53.569 43.4712L52.673 43.2612C52.561 43.2332 52.407 43.1865 52.211 43.1212C52.0243 43.0558 51.8376 42.9578 51.651 42.8272C51.4736 42.6965 51.3196 42.5285 51.189 42.3232C51.0583 42.1085 50.993 41.8472 50.993 41.5392C50.993 41.2032 51.0583 40.9092 51.189 40.6572C51.329 40.4052 51.511 40.1998 51.735 40.0412C51.9683 39.8825 52.2296 39.7658 52.519 39.6912C52.8083 39.6072 53.107 39.5652 53.415 39.5652C53.8723 39.5652 54.297 39.6538 54.689 39.8312C55.081 40.0085 55.3843 40.3118 55.599 40.7412L54.773 41.2872ZM58.6059 37.2132C58.6059 37.4092 58.5359 37.5725 58.3959 37.7032C58.2559 37.8245 58.1019 37.8852 57.9339 37.8852C57.7659 37.8852 57.6119 37.8245 57.4719 37.7032C57.3319 37.5725 57.2619 37.4092 57.2619 37.2132C57.2619 37.0172 57.3319 36.8585 57.4719 36.7372C57.6119 36.6065 57.7659 36.5412 57.9339 36.5412C58.1019 36.5412 58.2559 36.6065 58.3959 36.7372C58.5359 36.8585 58.6059 37.0172 58.6059 37.2132ZM58.3959 46.2852H57.4719V39.7332H58.3959V46.2852ZM61.2972 42.9252C61.2972 43.2705 61.3579 43.5972 61.4792 43.9052C61.6099 44.2038 61.7825 44.4698 61.9972 44.7032C62.2212 44.9272 62.4779 45.1092 62.7672 45.2492C63.0659 45.3798 63.3879 45.4452 63.7332 45.4452C64.0692 45.4452 64.3865 45.3845 64.6852 45.2632C64.9932 45.1418 65.2639 44.9738 65.4972 44.7592C65.7305 44.5352 65.9079 44.2692 66.0292 43.9612C66.1599 43.6532 66.2205 43.3078 66.2112 42.9252C66.2112 42.5798 66.1552 42.2578 66.0432 41.9592C65.9312 41.6512 65.7679 41.3852 65.5532 41.1612C65.3385 40.9278 65.0772 40.7458 64.7692 40.6152C64.4612 40.4752 64.1159 40.4052 63.7332 40.4052C63.3879 40.4052 63.0659 40.4752 62.7672 40.6152C62.4779 40.7458 62.2212 40.9278 61.9972 41.1612C61.7825 41.3852 61.6099 41.6512 61.4792 41.9592C61.3579 42.2578 61.2972 42.5798 61.2972 42.9252ZM61.1292 47.6012C61.3999 47.9652 61.7499 48.2545 62.1792 48.4692C62.6179 48.6932 63.1032 48.8052 63.6352 48.8052C64.1019 48.8052 64.4985 48.7352 64.8252 48.5952C65.1519 48.4645 65.4132 48.2825 65.6092 48.0492C65.8145 47.8158 65.9592 47.5405 66.0432 47.2232C66.1365 46.9152 66.1832 46.5838 66.1832 46.2292V45.0532H66.1552C65.8565 45.5012 65.4925 45.8185 65.0632 46.0052C64.6339 46.1918 64.1812 46.2852 63.7052 46.2852C63.2292 46.2852 62.7812 46.2012 62.3612 46.0332C61.9505 45.8652 61.5912 45.6365 61.2832 45.3472C60.9752 45.0485 60.7325 44.6938 60.5552 44.2832C60.3779 43.8725 60.2892 43.4292 60.2892 42.9532C60.2892 42.4772 60.3732 42.0338 60.5412 41.6232C60.7092 41.2125 60.9379 40.8532 61.2272 40.5452C61.5259 40.2372 61.8759 39.9992 62.2772 39.8312C62.6879 39.6538 63.1359 39.5652 63.6212 39.5652C63.8172 39.5652 64.0225 39.5838 64.2372 39.6212C64.4612 39.6585 64.6805 39.7238 64.8952 39.8172C65.1192 39.9105 65.3385 40.0412 65.5532 40.2092C65.7679 40.3678 65.9685 40.5732 66.1552 40.8252H66.1832V39.7332H67.1072V46.2292C67.1072 46.5838 67.0605 46.9618 66.9672 47.3632C66.8832 47.7645 66.7105 48.1332 66.4492 48.4692C66.1972 48.8052 65.8425 49.0852 65.3852 49.3092C64.9279 49.5332 64.3305 49.6452 63.5932 49.6452C62.9399 49.6452 62.3565 49.5378 61.8432 49.3232C61.3299 49.1085 60.8632 48.7772 60.4432 48.3292L61.1292 47.6012ZM70.0658 39.7332C70.0844 39.9105 70.0938 40.0878 70.0938 40.2652C70.1031 40.4332 70.1078 40.6058 70.1078 40.7832H70.1358C70.2384 40.6058 70.3691 40.4425 70.5278 40.2932C70.6864 40.1438 70.8638 40.0178 71.0598 39.9152C71.2558 39.8032 71.4611 39.7192 71.6758 39.6632C71.8998 39.5978 72.1191 39.5652 72.3338 39.5652C73.1738 39.5652 73.7944 39.7892 74.1958 40.2372C74.5971 40.6758 74.7978 41.3058 74.7978 42.1272V46.2852H73.8738V42.6592C73.8738 41.9312 73.7478 41.3758 73.4958 40.9932C73.2438 40.6012 72.7771 40.4052 72.0958 40.4052C72.0491 40.4052 71.9184 40.4238 71.7038 40.4612C71.4891 40.4985 71.2604 40.6012 71.0178 40.7692C70.7844 40.9372 70.5744 41.1892 70.3878 41.5252C70.2011 41.8612 70.1078 42.3278 70.1078 42.9252V46.2852H69.1838V41.1752C69.1838 40.9978 69.1744 40.7738 69.1558 40.5032C69.1464 40.2325 69.1324 39.9758 69.1138 39.7332H70.0658Z" fill="white"/>
<path fill-rule="evenodd" clip-rule="evenodd" d="M0.508536 0.0414737C0.499698 0.0642843 0.497318 6.93714 0.50331 15.3145L0.514187 30.546L5.77253 30.5459C8.66463 30.5458 11.05 30.5456 11.0734 30.5456C11.1016 30.5454 11.1158 25.4302 11.1158 15.2831C11.1158 6.88878 11.1015 0.020654 11.084 0.0205711C6.54107 -0.0026957 0.521029 0.00920716 0.508536 0.0414737ZM32.1653 0.103684C32.0663 0.21388 31.4096 1.00611 29.6209 3.17332C29.0133 3.90956 28.2198 4.8708 27.8575 5.30946C27.4953 5.74813 26.5775 6.85967 25.8179 7.7796C25.0584 8.69948 23.6626 10.3885 22.7161 11.533C19.8206 15.034 19.6782 15.2069 19.6671 15.2356C19.6612 15.2509 20.2924 16.0377 21.0698 16.984C23.1954 19.5714 26.1736 23.1939 27.3262 24.5939C27.8896 25.2782 29.208 26.8833 30.2561 28.1606C31.3041 29.438 32.1743 30.4973 32.1897 30.5146C32.2157 30.5437 44.7665 30.5619 44.7963 30.5328C44.8037 30.5256 44.1578 29.7276 43.3611 28.7595C41.6262 26.6517 38.8192 23.2378 36.5471 20.4725C35.6356 19.3632 34.2992 17.7388 33.5773 16.8627C32.4729 15.5224 32.272 15.2585 32.3105 15.1982C32.3357 15.1588 32.9175 14.4479 33.6033 13.6184C34.2891 12.789 35.289 11.5784 35.8254 10.9283C36.3617 10.2782 37.0087 9.49437 37.2632 9.18643C37.5177 8.87848 38.0572 8.22527 38.4621 7.73485C40.0318 5.83336 42.5066 2.83908 43.9737 1.06629C44.436 0.507762 44.8071 0.0438796 44.7985 0.0354605C44.7899 0.0270828 41.9648 0.0156361 38.5206 0.0100786L32.2584 0L32.1653 0.103684ZM63.7855 0.207369C63.6217 0.397857 62.7886 1.40571 60.6829 3.96074C60.2411 4.49679 59.648 5.21532 59.3649 5.55748C59.0817 5.89964 57.8868 7.34603 56.7095 8.77169C55.5322 10.1973 54.3373 11.6437 54.0541 11.9859C53.7708 12.3281 53.2538 12.9533 52.905 13.3753C52.5563 13.7973 52.0647 14.3916 51.8127 14.696L51.3546 15.2495L51.5144 15.4439C52.182 16.2567 55.6696 20.4986 56.8891 21.9811C57.7147 22.9847 59.4788 25.131 60.8092 26.7505C62.1397 28.3701 63.3917 29.8874 63.5913 30.1225L63.9542 30.5498L70.2179 30.5479C73.6629 30.5468 76.4897 30.538 76.4996 30.5283C76.5095 30.5187 76.2807 30.2246 75.9912 29.8748C75.4681 29.2431 74.7788 28.4052 71.1517 23.9925C68.4306 20.6821 66.4166 18.2341 65.1695 16.7215C64.5712 15.9957 64.0561 15.3668 64.0249 15.324C63.9736 15.2535 64.0575 15.1382 64.9173 14.098C67.3244 11.1859 68.8637 9.32292 69.6146 8.41302C70.0636 7.86893 71.3717 6.28534 72.5215 4.8939C73.6712 3.50245 75.0407 1.84463 75.5649 1.20979C76.089 0.574992 76.5097 0.0476944 76.4998 0.0380311C76.4899 0.0283677 73.6653 0.0158433 70.2228 0.0102444L63.9638 0L63.7855 0.207369Z" fill="white"/>
</svg>
